<svg width="18" height="15" viewBox="0 0 18 15" fill="none" xmlns="http://www.w3.org/2000/svg">
<path d="M8.12066 2.92977L9 4.55352L9.87934 2.92977C10.4906 1.8011 11.7528 1 13.2396 1C15.3684 1 17 2.62132 17 4.5088C17 5.44447 16.5644 6.5124 15.7726 7.65167C14.9905 8.77699 13.928 9.87587 12.8341 10.8522C11.7447 11.8245 10.6509 12.6517 9.8271 13.237C9.50242 13.4676 9.221 13.6598 9 13.8074C8.779 13.6598 8.49758 13.4676 8.1729 13.237C7.34907 12.6517 6.25526 11.8245 5.16588 10.8522C4.07201 9.87587 3.00951 8.77699 2.22741 7.65167C1.43562 6.5124 1 5.44447 1 4.5088C1 2.62132 2.63161 1 4.76039 1C6.24722 1 7.50943 1.8011 8.12066 2.92977Z" fill="#6D5DFF" stroke="black" stroke-width="2"/>
</svg>
