<svg width="27" height="12" viewBox="0 0 27 12" fill="none" xmlns="http://www.w3.org/2000/svg">
<path d="M11.3848 10.05C10.8382 10.05 10.3582 9.93667 9.94484 9.71C9.53151 9.47667 9.20818 9.16 8.97484 8.76C8.74151 8.35333 8.62484 7.89 8.62484 7.37C8.62484 6.85 8.73484 6.39 8.95484 5.99C9.18151 5.59 9.48818 5.27667 9.87484 5.05C10.2682 4.81667 10.7082 4.7 11.1948 4.7C11.6882 4.7 12.1248 4.81333 12.5048 5.04C12.8915 5.26 13.1948 5.57333 13.4148 5.98C13.6348 6.38 13.7448 6.84333 13.7448 7.37C13.7448 7.40333 13.7415 7.44 13.7348 7.48C13.7348 7.51333 13.7348 7.55 13.7348 7.59H9.16484V7.06H13.3548L13.0748 7.27C13.0748 6.89 12.9915 6.55333 12.8248 6.26C12.6648 5.96 12.4448 5.72667 12.1648 5.56C11.8848 5.39333 11.5615 5.31 11.1948 5.31C10.8348 5.31 10.5115 5.39333 10.2248 5.56C9.93818 5.72667 9.71484 5.96 9.55484 6.26C9.39484 6.56 9.31484 6.90333 9.31484 7.29V7.4C9.31484 7.8 9.40151 8.15333 9.57484 8.46C9.75484 8.76 10.0015 8.99667 10.3148 9.17C10.6348 9.33667 10.9982 9.42 11.4048 9.42C11.7248 9.42 12.0215 9.36333 12.2948 9.25C12.5748 9.13667 12.8148 8.96333 13.0148 8.73L13.4148 9.19C13.1815 9.47 12.8882 9.68333 12.5348 9.83C12.1882 9.97667 11.8048 10.05 11.3848 10.05ZM16.9898 10.05C16.4898 10.05 16.0398 9.93667 15.6398 9.71C15.2464 9.48333 14.9364 9.17 14.7098 8.77C14.4831 8.36333 14.3698 7.89667 14.3698 7.37C14.3698 6.83667 14.4831 6.37 14.7098 5.97C14.9364 5.57 15.2464 5.26 15.6398 5.04C16.0398 4.81333 16.4898 4.7 16.9898 4.7C17.4498 4.7 17.8598 4.80333 18.2198 5.01C18.5864 5.21667 18.8764 5.52 19.0898 5.92C19.3098 6.31333 19.4198 6.79667 19.4198 7.37C19.4198 7.93667 19.3131 8.42 19.0998 8.82C18.8864 9.22 18.5964 9.52667 18.2298 9.74C17.8698 9.94667 17.4564 10.05 16.9898 10.05ZM17.0398 9.42C17.4131 9.42 17.7464 9.33667 18.0398 9.17C18.3398 8.99667 18.5731 8.75667 18.7398 8.45C18.9131 8.13667 18.9998 7.77667 18.9998 7.37C18.9998 6.95667 18.9131 6.59667 18.7398 6.29C18.5731 5.98333 18.3398 5.74667 18.0398 5.58C17.7464 5.40667 17.4131 5.32 17.0398 5.32C16.6731 5.32 16.3431 5.40667 16.0498 5.58C15.7564 5.74667 15.5231 5.98333 15.3498 6.29C15.1764 6.59667 15.0898 6.95667 15.0898 7.37C15.0898 7.77667 15.1764 8.13667 15.3498 8.45C15.5231 8.75667 15.7564 8.99667 16.0498 9.17C16.3431 9.33667 16.6731 9.42 17.0398 9.42ZM19.0198 10V8.42L19.0898 7.36L18.9898 6.3V2.58H19.6998V10H19.0198ZM21.3771 10V4.75H22.0871V10H21.3771ZM21.7371 3.59C21.5904 3.59 21.4671 3.54 21.3671 3.44C21.2671 3.34 21.2171 3.22 21.2171 3.08C21.2171 2.94 21.2671 2.82333 21.3671 2.73C21.4671 2.63 21.5904 2.58 21.7371 2.58C21.8838 2.58 22.0071 2.62667 22.1071 2.72C22.2071 2.81333 22.2571 2.93 22.2571 3.07C22.2571 3.21667 22.2071 3.34 22.1071 3.44C22.0138 3.54 21.8904 3.59 21.7371 3.59ZM25.4227 10.05C24.9293 10.05 24.5493 9.91667 24.2827 9.65C24.016 9.38333 23.8827 9.00667 23.8827 8.52V3.59H24.5927V8.48C24.5927 8.78667 24.6693 9.02333 24.8227 9.19C24.9827 9.35667 25.2093 9.44 25.5027 9.44C25.816 9.44 26.076 9.35 26.2827 9.17L26.5327 9.68C26.3927 9.80667 26.2227 9.9 26.0227 9.96C25.8293 10.02 25.6293 10.05 25.4227 10.05ZM22.9427 5.34V4.75H26.1927V5.34H22.9427Z" fill="#333333"/>
<g opacity="0.8" clip-path="url(#clip0_2_80)">
<path d="M0 8.74983V10H1.25017L4.93901 6.31115L3.68884 5.06097L0 8.74983Z" fill="black"/>
<path d="M5.90251 4.87595L5.12406 4.09751C4.99404 3.9675 4.78234 3.9675 4.65232 4.09751L4.04224 4.7076L5.29241 5.95777L5.90249 5.34769C6.03253 5.21767 6.03253 5.00597 5.90251 4.87595Z" fill="black"/>
</g>
<defs>
<clipPath id="clip0_2_80">
<rect width="6" height="6" fill="white" transform="translate(0 4)"/>
</clipPath>
</defs>
</svg>
