<svg width="20" height="20" viewBox="0 0 20 20" fill="none" xmlns="http://www.w3.org/2000/svg">
<g clip-path="url(#clip0_1_209)">
<path d="M12.5 3.75C12.8315 3.75 13.1495 3.8817 13.3839 4.11612C13.6183 4.35054 13.75 4.66848 13.75 5V15C13.75 15.3315 13.6183 15.6495 13.3839 15.8839C13.1495 16.1183 12.8315 16.25 12.5 16.25H7.5C7.16848 16.25 6.85054 16.1183 6.61612 15.8839C6.3817 15.6495 6.25 15.3315 6.25 15V5C6.25 4.66848 6.3817 4.35054 6.61612 4.11612C6.85054 3.8817 7.16848 3.75 7.5 3.75H12.5ZM7.5 2.5C6.83696 2.5 6.20107 2.76339 5.73223 3.23223C5.26339 3.70107 5 4.33696 5 5V15C5 15.663 5.26339 16.2989 5.73223 16.7678C6.20107 17.2366 6.83696 17.5 7.5 17.5H12.5C13.163 17.5 13.7989 17.2366 14.2678 16.7678C14.7366 16.2989 15 15.663 15 15V5C15 4.33696 14.7366 3.70107 14.2678 3.23223C13.7989 2.76339 13.163 2.5 12.5 2.5H7.5Z" fill="black"/>
<path d="M10 15C10.3315 15 10.6495 14.8683 10.8839 14.6339C11.1183 14.3995 11.25 14.0815 11.25 13.75C11.25 13.4185 11.1183 13.1006 10.8839 12.8661C10.6495 12.6317 10.3315 12.5 10 12.5C9.66848 12.5 9.35053 12.6317 9.11611 12.8661C8.88169 13.1006 8.75 13.4185 8.75 13.75C8.75 14.0815 8.88169 14.3995 9.11611 14.6339C9.35053 14.8683 9.66848 15 10 15ZM1.99874 5.07252C2.07131 5.11092 2.13561 5.16323 2.18795 5.22649C2.2403 5.28974 2.27966 5.36268 2.30381 5.44115C2.32795 5.51962 2.3364 5.60208 2.32867 5.68382C2.32094 5.76556 2.29718 5.84497 2.25875 5.91752C1.59405 7.17552 1.2477 8.57721 1.24999 10C1.24999 11.475 1.615 12.865 2.25875 14.0825C2.33632 14.2291 2.35251 14.4004 2.30375 14.5589C2.25499 14.7173 2.14528 14.8499 1.99874 14.9275C1.85221 15.0051 1.68087 15.0213 1.5224 14.9725C1.36393 14.9238 1.23132 14.8141 1.15375 14.6675C0.393775 13.2292 -0.00234969 11.6267 -4.90952e-06 10C-4.90952e-06 8.31627 0.417495 6.72627 1.15375 5.33252C1.19214 5.25995 1.24446 5.19566 1.30771 5.14331C1.37096 5.09097 1.44391 5.0516 1.52238 5.02745C1.60085 5.00331 1.68331 4.99486 1.76505 5.00259C1.84678 5.01033 1.92619 5.03409 1.99874 5.07252ZM18.0012 5.07252C18.0738 5.03409 18.1532 5.01033 18.2349 5.00259C18.3167 4.99486 18.3991 5.00331 18.4776 5.02745C18.5561 5.0516 18.629 5.09097 18.6923 5.14331C18.7555 5.19566 18.8078 5.25995 18.8462 5.33252C19.6063 6.77077 20.0024 8.37331 20 10C20.0024 11.6267 19.6063 13.2293 18.8462 14.6675C18.7687 14.8141 18.6361 14.9238 18.4776 14.9725C18.3191 15.0213 18.1478 15.0051 18.0012 14.9275C17.8547 14.8499 17.745 14.7173 17.6962 14.5589C17.6475 14.4004 17.6637 14.2291 17.7412 14.0825C18.4059 12.8245 18.7523 11.4228 18.75 10C18.75 8.52502 18.385 7.13502 17.7412 5.91752C17.7028 5.84497 17.6791 5.76556 17.6713 5.68382C17.6636 5.60208 17.672 5.51962 17.6962 5.44115C17.7203 5.36268 17.7597 5.28974 17.812 5.22649C17.8644 5.16323 17.9287 5.11092 18.0012 5.07252ZM3.82125 6.91752C3.89777 6.94736 3.96766 6.99199 4.02693 7.04885C4.08619 7.10572 4.13366 7.17371 4.16663 7.24894C4.1996 7.32417 4.21742 7.40515 4.21907 7.48727C4.22072 7.56939 4.20617 7.65103 4.17625 7.72752C3.89367 8.4518 3.7491 9.22256 3.75 10C3.75 10.8025 3.9 11.5688 4.17499 12.2725C4.20988 12.3498 4.22868 12.4333 4.23026 12.5181C4.23184 12.6028 4.21617 12.687 4.18419 12.7655C4.15222 12.844 4.10461 12.9152 4.04427 12.9747C3.98392 13.0342 3.9121 13.0808 3.83317 13.1117C3.75424 13.1426 3.66984 13.1571 3.58513 13.1544C3.50041 13.1516 3.41714 13.1317 3.34037 13.0958C3.26361 13.0598 3.19495 13.0086 3.13859 12.9453C3.08222 12.882 3.03932 12.8079 3.0125 12.7275C2.67308 11.8583 2.49926 10.9332 2.5 10C2.5 9.03877 2.68125 8.11877 3.0125 7.27252C3.07277 7.11828 3.19179 6.99426 3.34342 6.9277C3.49506 6.86114 3.66691 6.85748 3.82125 6.91752ZM16.1787 6.91752C16.2552 6.8876 16.3369 6.87304 16.419 6.87469C16.5011 6.87634 16.5821 6.89416 16.6573 6.92713C16.7326 6.9601 16.8005 7.00757 16.8574 7.06684C16.9143 7.1261 16.9589 7.196 16.9887 7.27252C17.3187 8.11877 17.5 9.03877 17.5 10C17.5 10.9613 17.3187 11.8813 16.9875 12.7275C16.9216 12.8736 16.802 12.9887 16.6536 13.0491C16.5052 13.1096 16.3393 13.1107 16.1901 13.0523C16.0409 12.9939 15.9198 12.8804 15.8518 12.7353C15.7839 12.5902 15.7743 12.4245 15.825 12.2725C16.1 11.5688 16.25 10.8025 16.25 10C16.25 9.19752 16.1 8.43127 15.825 7.72752C15.7645 7.5732 15.7678 7.40116 15.8341 7.24926C15.9005 7.09735 16.0244 6.97802 16.1787 6.91752Z" fill="black"/>
</g>
<defs>
<clipPath id="clip0_1_209">
<rect width="20" height="20" fill="white"/>
</clipPath>
</defs>
</svg>
