<svg width="15" height="15" viewBox="0 0 15 15" fill="none" xmlns="http://www.w3.org/2000/svg">
<path fill-rule="evenodd" clip-rule="evenodd" d="M14.0625 7.50004C14.0625 7.37572 14.0131 7.25649 13.9252 7.16859C13.8373 7.08068 13.7181 7.03129 13.5937 7.03129H2.5378L5.48811 4.08192C5.53169 4.03834 5.56626 3.9866 5.58985 3.92965C5.61344 3.87271 5.62558 3.81168 5.62558 3.75004C5.62558 3.68841 5.61344 3.62738 5.58985 3.57043C5.56626 3.51349 5.53169 3.46175 5.48811 3.41817C5.44453 3.37459 5.39279 3.34001 5.33584 3.31643C5.2789 3.29284 5.21787 3.2807 5.15623 3.2807C5.0946 3.2807 5.03357 3.29284 4.97662 3.31643C4.91968 3.34001 4.86794 3.37459 4.82436 3.41817L1.07436 7.16817C1.03071 7.21171 0.996071 7.26344 0.97244 7.32039C0.948809 7.37734 0.936646 7.43839 0.936646 7.50004C0.936646 7.5617 0.948809 7.62275 0.97244 7.6797C0.996071 7.73665 1.03071 7.78837 1.07436 7.83192L4.82436 11.5819C4.86794 11.6255 4.91968 11.6601 4.97662 11.6837C5.03357 11.7072 5.0946 11.7194 5.15623 11.7194C5.21787 11.7194 5.2789 11.7072 5.33584 11.6837C5.39279 11.6601 5.44453 11.6255 5.48811 11.5819C5.53169 11.5383 5.56626 11.4866 5.58985 11.4297C5.61344 11.3727 5.62558 11.3117 5.62558 11.25C5.62558 11.1884 5.61344 11.1274 5.58985 11.0704C5.56626 11.0135 5.53169 10.9618 5.48811 10.9182L2.5378 7.96879H13.5937C13.7181 7.96879 13.8373 7.91941 13.9252 7.8315C14.0131 7.74359 14.0625 7.62436 14.0625 7.50004Z" fill="black"/>
</svg>
