<svg width="20" height="20" viewBox="0 0 20 20" fill="none" xmlns="http://www.w3.org/2000/svg">
<path d="M13.33 12.838L17.827 8.415L17.884 8.35C17.9684 8.23669 18.0091 8.09675 17.9986 7.95586C17.9881 7.81497 17.9272 7.68258 17.827 7.583L13.33 3.162L13.268 3.109C12.908 2.839 12.378 3.099 12.378 3.578V5.708L12.153 5.723C8.59 6.005 6.503 8.26 6.005 12.35C5.941 12.875 6.543 13.204 6.933 12.856C8.364 11.578 9.843 10.784 11.378 10.466C11.624 10.415 11.871 10.376 12.12 10.349L12.378 10.326V12.422L12.383 12.504C12.443 12.957 12.992 13.17 13.33 12.838ZM12.226 6.72L13.378 6.643V4.61L16.824 7.998L13.378 11.388V9.231L12.022 9.353H12.014C10.311 9.536 8.704 10.218 7.187 11.355C7.485 10.016 7.994 9.009 8.663 8.288C9.493 7.393 10.653 6.845 12.226 6.719V6.72ZM5.5 4C4.83696 4 4.20107 4.26339 3.73223 4.73223C3.26339 5.20107 3 5.83696 3 6.5V14.5C3 15.163 3.26339 15.7989 3.73223 16.2678C4.20107 16.7366 4.83696 17 5.5 17H13.5C14.163 17 14.7989 16.7366 15.2678 16.2678C15.7366 15.7989 16 15.163 16 14.5V13.5C16 13.3674 15.9473 13.2402 15.8536 13.1464C15.7598 13.0527 15.6326 13 15.5 13C15.3674 13 15.2402 13.0527 15.1464 13.1464C15.0527 13.2402 15 13.3674 15 13.5V14.5C15 14.8978 14.842 15.2794 14.5607 15.5607C14.2794 15.842 13.8978 16 13.5 16H5.5C5.10218 16 4.72064 15.842 4.43934 15.5607C4.15804 15.2794 4 14.8978 4 14.5V6.5C4 6.10217 4.15804 5.72064 4.43934 5.43934C4.72064 5.15803 5.10218 5 5.5 5H8.5C8.63261 5 8.75979 4.94732 8.85355 4.85355C8.94732 4.75978 9 4.6326 9 4.5C9 4.36739 8.94732 4.24021 8.85355 4.14644C8.75979 4.05267 8.63261 4 8.5 4H5.5Z" fill="black"/>
</svg>
