<svg width="17" height="17" viewBox="0 0 17 17" fill="none" xmlns="http://www.w3.org/2000/svg">
<path d="M7.33334 14C8.81249 13.9997 10.249 13.5045 11.4142 12.5934L15.0775 16.2567L16.2558 15.0784L12.5925 11.415C13.5042 10.2497 13.9997 8.81288 14 7.33335C14 3.65752 11.0092 0.666687 7.33334 0.666687C3.65751 0.666687 0.666672 3.65752 0.666672 7.33335C0.666672 11.0092 3.65751 14 7.33334 14ZM7.33334 2.33335C10.0908 2.33335 12.3333 4.57585 12.3333 7.33335C12.3333 10.0909 10.0908 12.3334 7.33334 12.3334C4.57584 12.3334 2.33334 10.0909 2.33334 7.33335C2.33334 4.57585 4.57584 2.33335 7.33334 2.33335Z" fill="black" fill-opacity="0.5"/>
</svg>
