<svg width="15" height="15" viewBox="0 0 15 15" fill="none" xmlns="http://www.w3.org/2000/svg">
<path d="M10.0143 8.71728C9.69077 8.71891 9.3717 8.79316 9.08066 8.93456C8.78963 9.07597 8.53405 9.28091 8.33279 9.53428L5.17286 7.55878C5.28803 7.1871 5.28803 6.78926 5.17286 6.41758L8.33279 4.44208C8.65352 4.83922 9.10445 5.11002 9.60572 5.20652C10.107 5.30301 10.6262 5.21898 11.0715 4.96929C11.5167 4.71961 11.8592 4.32039 12.0383 3.84236C12.2174 3.36433 12.2215 2.83834 12.0499 2.35757C11.8783 1.87681 11.5421 1.47229 11.1008 1.21568C10.6595 0.959064 10.1417 0.866925 9.63894 0.955578C9.13622 1.04423 8.6811 1.30796 8.35421 1.70004C8.02732 2.09211 7.84976 2.58724 7.85297 3.0977C7.85501 3.29101 7.88411 3.48307 7.93942 3.66831L4.77949 5.6438C4.50052 5.29261 4.11921 5.03691 3.68841 4.91213C3.25761 4.78735 2.79866 4.79968 2.37518 4.94741C1.9517 5.09514 1.58467 5.37095 1.32496 5.73661C1.06525 6.10227 0.92572 6.53967 0.92572 6.98818C0.92572 7.43669 1.06525 7.87408 1.32496 8.23974C1.58467 8.6054 1.9517 8.88121 2.37518 9.02894C2.79866 9.17667 3.25761 9.189 3.68841 9.06423C4.11921 8.93945 4.50052 8.68374 4.77949 8.33255L7.93942 10.3081C7.88411 10.4933 7.85501 10.6854 7.85297 10.8787C7.85297 11.3061 7.97973 11.724 8.21722 12.0795C8.45472 12.4349 8.79228 12.7119 9.18722 12.8755C9.58216 13.0391 10.0167 13.0819 10.436 12.9985C10.8553 12.9151 11.2404 12.7093 11.5427 12.407C11.8449 12.1047 12.0508 11.7196 12.1342 11.3003C12.2176 10.8811 12.1748 10.4465 12.0112 10.0515C11.8476 9.65659 11.5706 9.31903 11.2151 9.08154C10.8597 8.84404 10.4418 8.71728 10.0143 8.71728ZM10.0143 1.80088C10.2708 1.80088 10.5216 1.87693 10.7348 2.01943C10.9481 2.16193 11.1143 2.36446 11.2125 2.60143C11.3106 2.83839 11.3363 3.09914 11.2862 3.3507C11.2362 3.60226 11.1127 3.83333 10.9313 4.0147C10.75 4.19606 10.5189 4.31957 10.2673 4.36961C10.0158 4.41965 9.75503 4.39397 9.51807 4.29581C9.28111 4.19766 9.07857 4.03144 8.93607 3.81818C8.79357 3.60492 8.71752 3.35419 8.71752 3.0977C8.71752 2.75376 8.85415 2.42391 9.09735 2.18071C9.34055 1.93751 9.6704 1.80088 10.0143 1.80088ZM3.09794 8.285C2.84145 8.285 2.59072 8.20895 2.37746 8.06645C2.1642 7.92395 1.99798 7.72142 1.89983 7.48445C1.80168 7.24749 1.77599 6.98674 1.82603 6.73518C1.87607 6.48362 1.99958 6.25255 2.18095 6.07118C2.36231 5.88982 2.59338 5.76631 2.84494 5.71627C3.0965 5.66623 3.35725 5.69191 3.59421 5.79007C3.83118 5.88822 4.03371 6.05444 4.17621 6.2677C4.31871 6.48096 4.39477 6.73169 4.39477 6.98818C4.39477 7.33212 4.25814 7.66197 4.01493 7.90517C3.77173 8.14837 3.44188 8.285 3.09794 8.285ZM10.0143 12.1755C9.75785 12.1755 9.50713 12.0994 9.29387 11.9569C9.0806 11.8144 8.91439 11.6119 8.81623 11.3749C8.71808 11.138 8.6924 10.8772 8.74243 10.6257C8.79247 10.3741 8.91598 10.143 9.09735 9.96166C9.27871 9.7803 9.50978 9.65679 9.76134 9.60675C10.0129 9.55671 10.2737 9.58239 10.5106 9.68054C10.7476 9.7787 10.9501 9.94492 11.0926 10.1582C11.2351 10.3714 11.3112 10.6222 11.3112 10.8787C11.3112 11.2226 11.1745 11.5524 10.9313 11.7956C10.6881 12.0389 10.3583 12.1755 10.0143 12.1755Z" fill="#8F8F8F"/>
</svg>
