<svg width="40" height="40" viewBox="0 0 40 40" fill="none" xmlns="http://www.w3.org/2000/svg">
<path fill-rule="evenodd" clip-rule="evenodd" d="M27.0625 19.5C27.0625 19.3757 27.0131 19.2565 26.9252 19.1686C26.8373 19.0807 26.7181 19.0313 26.5937 19.0313H15.5378L18.4881 16.0819C18.5317 16.0383 18.5663 15.9866 18.5898 15.9297C18.6134 15.8727 18.6256 15.8117 18.6256 15.75C18.6256 15.6884 18.6134 15.6274 18.5898 15.5704C18.5663 15.5135 18.5317 15.4618 18.4881 15.4182C18.4445 15.3746 18.3928 15.34 18.3358 15.3164C18.2789 15.2928 18.2179 15.2807 18.1562 15.2807C18.0946 15.2807 18.0336 15.2928 17.9766 15.3164C17.9197 15.34 17.8679 15.3746 17.8244 15.4182L14.0744 19.1682C14.0307 19.2117 13.9961 19.2634 13.9724 19.3204C13.9488 19.3773 13.9366 19.4384 13.9366 19.5C13.9366 19.5617 13.9488 19.6228 13.9724 19.6797C13.9961 19.7366 14.0307 19.7884 14.0744 19.8319L17.8244 23.5819C17.8679 23.6255 17.9197 23.6601 17.9766 23.6837C18.0336 23.7072 18.0946 23.7194 18.1562 23.7194C18.2179 23.7194 18.2789 23.7072 18.3358 23.6837C18.3928 23.6601 18.4445 23.6255 18.4881 23.5819C18.5317 23.5383 18.5663 23.4866 18.5898 23.4297C18.6134 23.3727 18.6256 23.3117 18.6256 23.25C18.6256 23.1884 18.6134 23.1274 18.5898 23.0704C18.5663 23.0135 18.5317 22.9618 18.4881 22.9182L15.5378 19.9688H26.5937C26.7181 19.9688 26.8373 19.9194 26.9252 19.8315C27.0131 19.7436 27.0625 19.6244 27.0625 19.5Z" fill="black"/>
</svg>
